mtllib TopL.mtl

v -0.197754 0.777547 -0.124363
v -0.279785 0.726301 0.066889
v 0.000000 0.759847 0.075877
v -0.387024 0.662276 0.049733
v -0.273621 0.733157 -0.214800
v -0.429871 0.576260 0.026685
v -0.303894 0.654977 -0.267090
v -0.426880 0.495727 0.005106
v -0.301758 0.573891 -0.286605
v -0.396851 0.440426 -0.051921
v -0.311035 0.494073 -0.252134
v -0.332520 0.426927 -0.156008
v -0.270447 0.458924 -0.219532
v -0.339478 0.415783 -0.058524
v -0.343201 0.459823 -0.004514
v -0.339478 0.394678 0.020240
v -0.396851 0.419321 0.026843
v -0.332520 0.355588 0.110235
v -0.311035 0.365674 0.227056
v -0.270447 0.351536 0.181247
v -0.301758 0.417563 0.296818
v -0.242615 0.396966 0.230069
v -0.245911 0.348962 0.288483
v -0.206055 0.335106 0.243508
v -0.137634 0.305132 0.298539
v -0.042480 0.317571 0.308949
v -0.042480 0.327162 0.369842
v 0.000000 0.385179 0.417676
v 0.000000 0.798778 -0.203599
v 0.000000 0.762508 -0.324339
v 0.000000 0.687582 -0.388774
v 0.000000 0.606274 -0.407464
v -0.245911 0.510313 -0.313688
v -0.042480 0.532113 -0.395046
v -0.137634 0.477383 -0.344311
v -0.042480 0.493361 -0.347107
v -0.206055 0.475826 -0.281667
v -0.242615 0.522679 -0.239098
v 0.339478 0.415783 -0.058524
v 0.426880 0.495727 0.005106
v 0.343201 0.459823 -0.004514
v 0.396851 0.440426 -0.051921
v 0.332520 0.426927 -0.156008
v 0.311035 0.494073 -0.252134
v 0.270447 0.458924 -0.219532
v 0.301758 0.573891 -0.286605
v 0.242615 0.522679 -0.239098
v 0.245911 0.510313 -0.313688
v 0.206055 0.475826 -0.281667
v 0.137634 0.477383 -0.344311
v 0.042480 0.493361 -0.347107
v 0.042480 0.532113 -0.395046
v 0.000000 0.606274 -0.407464
v 0.245911 0.348962 0.288483
v 0.042480 0.327162 0.369842
v 0.301758 0.417563 0.296818
v 0.242615 0.396966 0.230069
v 0.270447 0.351536 0.181247
v 0.339478 0.394678 0.020240
v 0.396851 0.419321 0.026843
v 0.311035 0.365674 0.227056
v 0.332520 0.355588 0.110235
v -0.201050 0.065488 0.098219
v -0.242615 0.396966 0.230069
v -0.343201 0.459823 -0.004514
v 0.000000 0.043925 0.178693
v 0.000000 0.117587 -0.096216
v 0.201050 0.065488 0.098219
v 0.284363 0.117587 -0.096216
v 0.343201 0.459823 -0.004514
v 0.201050 0.169685 -0.290651
v 0.242615 0.522679 -0.239098
v 0.000000 0.191248 -0.371125
v 0.000000 0.548713 -0.336256
v -0.242615 0.522679 -0.239098
v 0.000000 0.370933 0.327228
v 0.042480 0.317571 0.308949
v 0.206055 0.335106 0.243508
v 0.137634 0.305132 0.298539
v -0.303894 0.497543 0.320460
v -0.273621 0.591394 0.314266
v -0.197754 0.675056 0.258140
v 0.000000 0.653824 0.337376
v 0.197754 0.675056 0.258140
v 0.273621 0.591394 0.314266
v 0.387024 0.662276 0.049733
v 0.429871 0.576260 0.026685
v 0.273621 0.733157 -0.214800
v 0.303894 0.654977 -0.267090
v 0.000000 0.762508 -0.324339
v 0.000000 0.687582 -0.388774
v 0.000000 0.562043 0.423805
v 0.000000 0.464938 0.442144
v 0.000000 0.798778 -0.203599
v 0.197754 0.777547 -0.124363
v 0.279785 0.726301 0.066889
v 0.303894 0.497543 0.320460
v -0.201050 0.169685 -0.290651
v 0.000000 0.370933 0.327228
v 0.242615 0.396966 0.230069
v -0.284363 0.117587 -0.096216
v 0.000000 0.548713 -0.336256
v 0.000000 0.548713 -0.336256

vt 0.253865 0.895467
vt 0.501484 0.895467
vt 0.996305 0.945586
vt 0.501484 0.822495
vt 0.253919 0.822495
vt 0.501484 0.694009
vt 0.253932 0.694009
vt 0.501484 0.537133
vt 0.253931 0.537133
vt 0.469208 0.460934
vt 0.289391 0.460934
vt 0.377690 0.416241
vt 0.295330 0.432440
vt 0.463799 0.432440
vt 0.501484 0.495610
vt 0.539169 0.432440
vt 0.533759 0.460934
vt 0.625278 0.416241
vt 0.713576 0.460934
vt 0.707637 0.432440
vt 0.749036 0.537133
vt 0.749067 0.495610
vt 0.785917 0.460669
vt 0.792016 0.432705
vt 0.872818 0.416241
vt 0.957125 0.432705
vt 0.962658 0.460669
vt 0.996336 0.537133
vt 0.006631 0.895467
vt 0.006631 0.822495
vt 0.006631 0.694009
vt 0.006631 0.537133
vt 0.217050 0.460669
vt 0.040309 0.460669
vt 0.130149 0.416241
vt 0.045843 0.432705
vt 0.210952 0.432705
vt 0.253901 0.495610
vt 0.464785 0.432440
vt 0.502471 0.537133
vt 0.502471 0.495610
vt 0.470195 0.460934
vt 0.378677 0.416241
vt 0.290378 0.460934
vt 0.296317 0.432440
vt 0.254919 0.537133
vt 0.254888 0.495610
vt 0.218037 0.460669
vt 0.211939 0.432705
vt 0.131136 0.416241
vt 0.046830 0.432705
vt 0.041296 0.460669
vt 0.007618 0.537133
vt 0.786904 0.460669
vt 0.963645 0.460669
vt 0.750023 0.537133
vt 0.750054 0.495610
vt 0.708624 0.432440
vt 0.540156 0.432440
vt 0.534746 0.460934
vt 0.714563 0.460934
vt 0.626265 0.416241
vt 0.207145 0.016981
vt 0.207145 0.392219
vt 0.000000 0.392219
vt 0.500000 0.016981
vt 0.522499 0.007323
vt 0.792855 0.016981
vt 1.000000 0.016981
vt 1.000000 0.392219
vt 0.792855 0.016981
vt 0.792855 0.392219
vt 0.500000 0.016981
vt 0.500000 0.392219
vt 0.207145 0.392219
vt 0.996336 0.495610
vt 0.958112 0.432705
vt 0.793002 0.432705
vt 0.873805 0.416241
vt 0.749035 0.694009
vt 0.749049 0.822495
vt 0.749102 0.895467
vt 0.996336 0.895467
vt 0.750089 0.895467
vt 0.750036 0.822495
vt 0.502471 0.822495
vt 0.502471 0.694009
vt 0.254905 0.822495
vt 0.254919 0.694009
vt 0.007618 0.822495
vt 0.007618 0.694009
vt 0.996336 0.822495
vt 0.996336 0.694009
vt 0.007618 0.895467
vt 0.254852 0.895467
vt 0.502471 0.895467
vt 0.750022 0.694009
vt 0.207145 0.016981
vt 0.500000 0.392219
vt 0.792855 0.392219
vt 0.000000 0.016981
vt 0.007618 0.495610
vt 0.006631 0.495610

vn -0.233280 0.972222 0.019124
vn -0.329837 0.911871 0.244335
vn 0.000000 0.965926 0.258819
vn -0.739211 0.650526 0.174308
vn -0.522812 0.785762 -0.330521
vn -0.978451 0.199445 0.053441
vn -0.691960 0.378493 -0.614764
vn -0.936116 -0.339708 -0.091025
vn -0.655901 -0.183042 -0.732318
vn -0.740839 -0.660575 -0.121648
vn -0.489270 -0.506881 -0.709708
vn -0.299988 -0.880147 -0.367898
vn 0.468679 -0.788812 -0.397637
vn 0.210327 -0.950096 0.230392
vn -0.272762 -0.929300 -0.249005
vn 0.210327 -0.707611 -0.674573
vn -0.740839 -0.632898 -0.224937
vn -0.299988 -0.946178 -0.121464
vn -0.489270 -0.793826 0.361185
vn 0.468679 -0.881950 -0.050043
vn -0.655901 -0.524678 0.542685
vn -0.191957 -0.979945 -0.053484
vn -0.551273 -0.778766 0.299367
vn -0.176939 -0.716528 -0.674745
vn -0.126280 -0.991096 0.042222
vn 0.464418 -0.776558 -0.425762
vn 0.050050 -0.839804 0.540578
vn 0.000000 -0.588180 0.808730
vn 0.000000 0.997249 -0.074128
vn 0.000000 0.841895 -0.539642
vn 0.000000 0.452687 -0.891669
vn 0.000000 -0.105014 -0.994471
vn -0.551273 -0.524748 -0.648643
vn 0.050050 -0.457003 -0.888056
vn -0.126280 -0.837203 -0.532113
vn 0.464418 -0.885400 -0.019558
vn -0.176939 -0.957904 0.226083
vn -0.191957 -0.875399 -0.443654
vn -0.210327 -0.950096 0.230392
vn 0.936116 -0.339708 -0.091025
vn 0.272762 -0.929300 -0.249005
vn 0.740839 -0.660575 -0.121648
vn 0.299988 -0.880147 -0.367898
vn 0.489270 -0.506881 -0.709708
vn -0.468679 -0.788812 -0.397637
vn 0.655901 -0.183042 -0.732318
vn 0.191957 -0.875399 -0.443654
vn 0.551273 -0.524748 -0.648643
vn 0.176939 -0.957904 0.226083
vn 0.126280 -0.837203 -0.532113
vn -0.464418 -0.885400 -0.019558
vn -0.050050 -0.457003 -0.888056
vn 0.000000 -0.105014 -0.994471
vn 0.551273 -0.778766 0.299367
vn -0.050050 -0.839804 0.540578
vn 0.655901 -0.524678 0.542685
vn 0.191957 -0.979945 -0.053484
vn -0.468679 -0.881950 -0.050043
vn -0.210327 -0.707611 -0.674573
vn 0.740839 -0.632898 -0.224937
vn 0.489270 -0.793826 0.361185
vn 0.299988 -0.946178 -0.121464
vn -0.439461 -0.870519 0.221520
vn -0.191957 -0.979945 -0.053484
vn -0.272762 -0.929300 -0.249005
vn 0.000000 -0.917684 0.397311
vn 0.000000 -0.965926 -0.258819
vn 0.439461 -0.870519 0.221520
vn 0.621325 -0.756854 -0.202798
vn 0.272762 -0.929300 -0.249005
vn 0.439461 -0.643132 -0.627101
vn 0.191957 -0.875399 -0.443654
vn 0.000000 -0.596082 -0.802924
vn 0.000000 -0.857921 -0.513782
vn -0.191957 -0.875399 -0.443654
vn 0.000000 -0.999872 0.015988
vn -0.464418 -0.776558 -0.425762
vn 0.176939 -0.716528 -0.674745
vn 0.126280 -0.991096 0.042222
vn -0.691960 0.020402 0.721647
vn -0.522812 0.515230 0.679121
vn -0.233280 0.851530 0.469549
vn 0.000000 0.826579 0.562821
vn 0.233280 0.851530 0.469549
vn 0.522812 0.515230 0.679121
vn 0.739211 0.650526 0.174308
vn 0.978451 0.199445 0.053441
vn 0.522812 0.785762 -0.330521
vn 0.691960 0.378493 -0.614764
vn 0.000000 0.841895 -0.539642
vn 0.000000 0.452687 -0.891669
vn 0.000000 0.459281 0.888291
vn 0.000000 -0.053796 0.998552
vn 0.000000 0.997249 -0.074128
vn 0.233280 0.972222 0.019124
vn 0.329837 0.911871 0.244335
vn 0.691960 0.020402 0.721647
vn -0.439461 -0.643132 -0.627101
vn 0.000000 -0.999872 0.015988
vn 0.191957 -0.979945 -0.053484
vn -0.621325 -0.756854 -0.202798
vn 0.000000 -0.857921 -0.513782
vn 0.000000 -0.857921 -0.513782

g polygon0
s 1
usemtl mat1
f 1/1/1 2/2/2 3/3/3
f 1/1/1 4/4/4 2/2/2
f 5/5/5 4/4/4 1/1/1
f 5/5/5 6/6/6 4/4/4
f 7/7/7 6/6/6 5/5/5
f 7/7/7 8/8/8 6/6/6
f 9/9/9 8/8/8 7/7/7
f 9/9/9 10/10/10 8/8/8
f 11/11/11 10/10/10 9/9/9
f 11/11/11 12/12/12 10/10/10
f 13/13/13 12/12/12 11/11/11
f 13/13/13 14/14/14 12/12/12
f 15/15/15 14/14/14 13/13/13
f 15/15/15 8/8/8 14/14/14
f 16/16/16 8/8/8 15/15/15
f 16/16/16 17/17/17 8/8/8
f 18/18/18 17/17/17 16/16/16
f 18/18/18 19/19/19 17/17/17
f 20/20/20 19/19/19 18/18/18
f 20/20/20 21/21/21 19/19/19
f 22/22/22 21/21/21 20/20/20
f 22/22/22 23/23/23 21/21/21
f 24/24/24 23/23/23 22/22/22
f 24/24/24 25/25/25 23/23/23
f 26/26/26 25/25/25 24/24/24
f 26/26/26 27/27/27 25/25/25
f 28/28/28 27/27/27 26/26/26
f 28/28/28 23/23/23 27/27/27
f 21/21/21 23/23/23 28/28/28
f 29/29/29 1/1/1 3/3/3
f 29/29/29 5/5/5 1/1/1
f 30/30/30 5/5/5 29/29/29
f 30/30/30 7/7/7 5/5/5
f 31/31/31 7/7/7 30/30/30
f 31/31/31 9/9/9 7/7/7
f 32/32/32 9/9/9 31/31/31
f 32/32/32 33/33/33 9/9/9
f 34/34/34 33/33/33 32/32/32
f 34/34/34 35/35/35 33/33/33
f 36/36/36 35/35/35 34/34/34
f 36/36/36 37/37/37 35/35/35
f 38/38/38 37/37/37 36/36/36
f 38/38/38 33/33/33 37/37/37
f 9/9/9 33/33/33 38/38/38
f 39/39/39 40/40/40 41/41/41
f 39/39/39 42/42/42 40/40/40
f 43/43/43 42/42/42 39/39/39
f 43/43/43 44/44/44 42/42/42
f 45/45/45 44/44/44 43/43/43
f 45/45/45 46/46/46 44/44/44
f 47/47/47 46/46/46 45/45/45
f 47/47/47 48/48/48 46/46/46
f 49/49/49 48/48/48 47/47/47
f 49/49/49 50/50/50 48/48/48
f 51/51/51 50/50/50 49/49/49
f 51/51/51 52/52/52 50/50/50
f 53/53/53 52/52/52 51/51/51
f 53/53/53 48/48/48 52/52/52
f 46/46/46 48/48/48 53/53/53
f 54/54/54 28/28/28 55/55/55
f 54/54/54 56/56/56 28/28/28
f 57/57/57 56/56/56 54/54/54
f 57/57/57 58/58/58 56/56/56
f 41/41/41 58/58/58 57/57/57
f 41/41/41 59/59/59 58/58/58
f 40/40/40 59/59/59 41/41/41
f 40/40/40 60/60/60 59/59/59
f 56/56/56 60/60/60 40/40/40
f 56/56/56 61/61/61 60/60/60
f 58/58/58 61/61/61 56/56/56
f 58/58/58 62/62/62 61/61/61
f 59/59/59 62/62/62 58/58/58
f 59/59/59 60/60/60 62/62/62
f 63/63/63 64/64/64 65/65/65
f 63/63/63 66/66/66 64/64/64
f 67/67/67 66/66/66 63/63/63
f 67/67/67 68/68/68 66/66/66
f 69/69/69 68/68/68 67/67/67
f 69/69/69 70/70/70 68/68/68
f 71/71/71 70/70/70 69/69/69
f 71/71/71 72/72/72 70/70/70
f 73/73/73 72/72/72 71/71/71
f 73/73/73 74/74/74 72/72/72
f 75/75/75 74/74/74 73/73/73
f 76/76/76 28/28/28 26/26/26
f 76/76/76 77/77/77 28/28/28
f 57/57/57 77/77/77 76/76/76
f 57/57/57 78/78/78 77/77/77
f 54/54/54 78/78/78 57/57/57
f 54/54/54 79/79/79 78/78/78
f 55/55/55 79/79/79 54/54/54
f 55/55/55 77/77/77 79/79/79
f 28/28/28 77/77/77 55/55/55
f 21/21/21 17/17/17 19/19/19
f 21/21/21 8/8/8 17/17/17
f 80/80/80 8/8/8 21/21/21
f 80/80/80 6/6/6 8/8/8
f 81/81/81 6/6/6 80/80/80
f 81/81/81 4/4/4 6/6/6
f 82/82/82 4/4/4 81/81/81
f 82/82/82 2/2/2 4/4/4
f 3/3/3 2/2/2 82/82/82
f 83/83/83 3/3/3 82/82/82
f 83/83/83 84/84/84 3/3/3
f 85/85/85 84/84/84 83/83/83
f 85/85/85 86/86/86 84/84/84
f 87/87/87 86/86/86 85/85/85
f 87/87/87 88/88/88 86/86/86
f 89/89/89 88/88/88 87/87/87
f 89/89/89 90/90/90 88/88/88
f 91/91/91 90/90/90 89/89/89
f 81/81/81 83/83/83 82/82/82
f 81/81/81 92/92/92 83/83/83
f 80/80/80 92/92/92 81/81/81
f 80/80/80 93/93/93 92/92/92
f 21/21/21 93/93/93 80/80/80
f 21/21/21 28/28/28 93/93/93
f 94/94/94 88/88/88 90/90/90
f 94/94/94 95/95/95 88/88/88
f 3/3/3 95/95/95 94/94/94
f 3/3/3 96/96/96 95/95/95
f 84/84/84 96/96/96 3/3/3
f 84/84/84 86/86/86 96/96/96
f 56/56/56 93/93/93 28/28/28
f 56/56/56 97/97/97 93/93/93
f 40/40/40 97/97/97 56/56/56
f 40/40/40 87/87/87 97/97/97
f 89/89/89 87/87/87 40/40/40
f 67/67/67 71/71/71 69/69/69
f 67/67/67 73/73/73 71/71/71
f 98/98/98 73/73/73 67/67/67
f 98/98/98 75/75/75 73/73/73
f 65/65/65 75/75/75 98/98/98
f 66/66/66 99/99/99 64/64/64
f 66/66/66 100/100/100 99/99/99
f 68/68/68 100/100/100 66/66/66
f 68/68/68 70/70/70 100/100/100
f 13/13/13 38/38/38 15/15/15
f 13/13/13 9/9/9 38/38/38
f 11/11/11 9/9/9 13/13/13
f 92/92/92 85/85/85 83/83/83
f 92/92/92 97/97/97 85/85/85
f 93/93/93 97/97/97 92/92/92
f 101/101/101 67/67/67 63/63/63
f 101/101/101 98/98/98 67/67/67
f 65/65/65 98/98/98 101/101/101
f 46/46/46 42/42/42 44/44/44
f 46/46/46 40/40/40 42/42/42
f 89/89/89 40/40/40 46/46/46
f 51/51/51 102/102/102 53/53/53
f 51/51/51 47/47/47 102/102/102
f 49/49/49 47/47/47 51/51/51
f 32/32/32 36/36/36 34/34/34
f 32/32/32 103/103/103 36/36/36
f 16/16/16 20/20/20 18/18/18
f 16/16/16 15/15/15 20/20/20
f 14/14/14 10/10/10 12/12/12
f 14/14/14 8/8/8 10/10/10
f 22/22/22 26/26/26 24/24/24
f 22/22/22 76/76/76 26/26/26
f 95/95/95 86/86/86 88/88/88
f 95/95/95 96/96/96 86/86/86
f 39/39/39 45/45/45 43/43/43
f 39/39/39 41/41/41 45/45/45
f 46/46/46 91/91/91 89/89/89
f 46/46/46 53/53/53 91/91/91
f 35/35/35 37/37/37 33/33/33
f 103/103/103 38/38/38 36/36/36
f 23/23/23 25/25/25 27/27/27
f 77/77/77 78/78/78 79/79/79
f 60/60/60 61/61/61 62/62/62
f 22/22/22 20/20/20 15/15/15
f 85/85/85 97/97/97 87/87/87
f 101/101/101 63/63/63 65/65/65
f 48/48/48 50/50/50 52/52/52
f 47/47/47 45/45/45 41/41/41

v -0.083191 0.914622 0.030971
v -0.117737 0.893027 0.111563
v 0.000000 0.937480 0.123474
v -0.166626 0.813084 0.090142
v -0.117737 0.843620 -0.023819
v -0.153748 0.731018 0.068152
v -0.108643 0.759200 -0.037024
v 0.000000 0.552560 0.020335
v 0.000000 0.770874 -0.080592
v 0.108643 0.759200 -0.037024
v 0.000000 0.856257 -0.070983
v 0.117737 0.843620 -0.023819
v 0.000000 0.923563 -0.002398
v 0.083191 0.914622 0.030971
v 0.117737 0.893027 0.111563
v 0.083191 0.871433 0.192155
v 0.166626 0.813084 0.090142
v 0.117737 0.782548 0.204103
v 0.153748 0.731018 0.068152
v 0.108643 0.702836 0.173329
v 0.000000 0.691162 0.216897
v -0.108643 0.702836 0.173329
v 0.000000 0.769910 0.251267
v -0.117737 0.782548 0.204103
v 0.000000 0.862492 0.225523
v -0.083191 0.871433 0.192155

vt -1.555592 0.142219
vt -1.430592 0.142219
vt -1.305592 0.392219
vt -1.430592 -0.107781
vt -1.555592 -0.107781
vt -1.430592 -0.357781
vt -1.555592 -0.357781
vt -1.305592 -0.607781
vt -1.680592 -0.357781
vt -1.555592 -0.357781
vt -1.680592 -0.107781
vt -1.555592 -0.107781
vt -1.680592 0.142219
vt -1.555592 0.142219
vt -1.430592 0.142219
vt -1.555592 0.142219
vt -1.430592 -0.107781
vt -1.555592 -0.107781
vt -1.430592 -0.357781
vt -1.555592 -0.357781
vt -1.680592 -0.357781
vt -1.555592 -0.357781
vt -1.680592 -0.107781
vt -1.555592 -0.107781
vt -1.680592 0.142219
vt -1.555592 0.142219

vn -0.453924 0.858260 -0.239461
vn -0.641606 0.740898 0.198523
vn 0.000000 0.965926 0.258819
vn -0.981080 0.187007 0.050108
vn -0.694004 0.366479 -0.619719
vn -0.910559 -0.399294 -0.106991
vn -0.644096 -0.232856 -0.728642
vn 0.000000 -0.965926 -0.258819
vn 0.000000 -0.164083 -0.986446
vn 0.644096 -0.232856 -0.728642
vn 0.000000 0.440983 -0.897516
vn 0.694004 0.366479 -0.619719
vn 0.000000 0.907159 -0.420788
vn 0.453924 0.858260 -0.239461
vn 0.641606 0.740898 0.198523
vn 0.453924 0.623545 0.636510
vn 0.981080 0.187007 0.050108
vn 0.694004 0.007520 0.719932
vn 0.910559 -0.399294 -0.106991
vn 0.644096 -0.565980 0.514594
vn 0.000000 -0.635323 0.772246
vn -0.644096 -0.565980 0.514594
vn 0.000000 -0.066856 0.997763
vn -0.694004 0.007520 0.719932
vn 0.000000 0.575228 0.817993
vn -0.453924 0.623545 0.636510

g polygon1
s 1
usemtl mat2
f 104/104/104 105/105/105 106/106/106
f 104/104/104 107/107/107 105/105/105
f 108/108/108 107/107/107 104/104/104
f 108/108/108 109/109/109 107/107/107
f 110/110/110 109/109/109 108/108/108
f 110/110/110 111/111/111 109/109/109
f 112/112/112 111/111/111 110/110/110
f 112/112/112 113/113/113 111/111/111
f 114/114/114 113/113/113 112/112/112
f 114/114/114 115/115/115 113/113/113
f 116/116/116 115/115/115 114/114/114
f 116/116/116 117/117/117 115/115/115
f 106/106/106 117/117/117 116/116/116
f 106/106/106 118/118/118 117/117/117
f 119/119/119 118/118/118 106/106/106
f 119/119/119 120/120/120 118/118/118
f 121/121/121 120/120/120 119/119/119
f 121/121/121 122/122/122 120/120/120
f 123/123/123 122/122/122 121/121/121
f 123/123/123 111/111/111 122/122/122
f 124/124/124 111/111/111 123/123/123
f 124/124/124 125/125/125 111/111/111
f 126/126/126 125/125/125 124/124/124
f 126/126/126 127/127/127 125/125/125
f 128/128/128 127/127/127 126/126/126
f 128/128/128 129/129/129 127/127/127
f 106/106/106 129/129/129 128/128/128
f 106/106/106 105/105/105 129/129/129
f 116/116/116 104/104/104 106/106/106
f 116/116/116 108/108/108 104/104/104
f 114/114/114 108/108/108 116/116/116
f 114/114/114 110/110/110 108/108/108
f 112/112/112 110/110/110 114/114/114
f 128/128/128 119/119/119 106/106/106
f 128/128/128 121/121/121 119/119/119
f 126/126/126 121/121/121 128/128/128
f 126/126/126 123/123/123 121/121/121
f 124/124/124 123/123/123 126/126/126
f 107/107/107 129/129/129 105/105/105
f 107/107/107 127/127/127 129/129/129
f 109/109/109 127/127/127 107/107/107
f 120/120/120 117/117/117 118/118/118
f 120/120/120 115/115/115 117/117/117
f 122/122/122 115/115/115 120/120/120
f 125/125/125 109/109/109 111/111/111
f 125/125/125 127/127/127 109/109/109
f 113/113/113 122/122/122 111/111/111
f 113/113/113 115/115/115 122/122/122

