# 3ds Max Wavefront OBJ Exporter v0.97b - (c)2007 guruware
# File Created: 13.12.2012 22:13:03

#
# object tiny_weed_03
#

v  10.1856 -5.4508 -16.6027
v  1.2623 -3.4589 -0.1840
v  8.8762 53.3237 0.4238
v  16.3168 62.3745 -57.8933
v  -12.7609 -2.6872 12.2506
v  -45.0771 69.7494 19.3011
v  67.1650 122.7183 -19.9166
v  23.7636 80.2369 9.6883
v  10.8901 131.0963 54.7886
v  67.5878 110.4448 41.6724
v  85.7796 118.3156 14.3998
v  46.0505 123.0742 64.3291
v  -8.8576 -2.5539 1.5486
v  -0.9648 -3.4590 -0.8344
v  -10.9530 15.6271 -11.6746
v  -25.7039 12.2956 19.7796
v  6.8697 -2.5573 1.6813
v  1.7220 40.4627 4.1641
v  -34.8229 11.7413 11.6017
v  -22.9883 19.6085 -17.7014
v  -47.8787 39.5160 -18.2571
v  -47.3192 9.8313 -23.2907
v  -40.0455 6.8939 -5.4167
v  -57.0221 19.8349 -26.7027
v  0.7659 -5.2006 -11.3705
v  24.4674 16.9158 -5.9176
v  11.7329 26.3420 -36.2737
v  -5.5632 0.2574 8.2015
v  20.9634 41.2676 17.8918
v  54.4774 35.2998 -44.8235
v  41.6412 20.8740 -11.5102
v  77.1643 31.0830 4.2660
v  73.2330 11.6143 -25.4388
v  70.0466 20.5050 -42.3943
v  82.8227 13.1646 -8.6363
v  -6.5368 -2.7981 -1.4224
v  4.2679 17.5103 -8.8172
v  -10.8237 29.8972 -5.8849
v  3.8412 -4.0715 2.0355
v  16.9391 26.4798 3.3703
v  1.3224 33.9912 -38.3526
v  8.2471 22.9592 -18.7446
v  27.9622 30.3233 -30.6051
v  14.1100 15.3903 -39.1008
v  6.3088 19.8595 -44.3870
v  24.2658 17.6494 -38.3900
v  -6.9868 2.6890 -0.3864
v  -1.0872 33.2870 9.6094
v  11.8441 9.4936 15.4775
v  37.3754 9.7817 7.1711
v  5.1453 -8.3638 -4.1415
v  -4.8104 29.7984 45.4162
v  12.9613 11.5426 29.7699
v  29.5777 6.6352 57.8859
v  1.8682 3.1181 54.7603
v  -8.2839 14.8048 52.8995
v  13.6380 -2.2756 63.2340
v  7.7172 -2.5539 11.2414
v  -25.6446 32.6878 11.3295
v  5.6085 53.8059 39.6416
v  -5.2401 -2.5573 -15.0510
v  -29.0495 53.7849 -30.7056
v  -56.0490 68.9814 67.7364
v  -46.1376 43.9460 21.4256
v  -90.9437 68.9010 1.9655
v  -90.2880 42.4587 43.1667
v  -81.1681 50.5764 66.9473
v  -103.5749 50.5606 21.4319
v  -12.7018 -2.5539 9.0130
v  0.0000 -3.4590 1.2756
v  -10.2497 32.6878 -24.2586
v  -40.8590 53.8059 4.7483
v  14.5008 -2.5573 -1.9049
v  31.9227 53.7849 -24.4533
v  -64.1780 68.9814 -58.8693
v  -18.7562 43.9460 -45.4608
v  4.0587 68.9010 -88.6552
v  -37.0728 42.4586 -91.1383
v  -61.4787 50.5764 -83.8554
v  -14.3895 50.5606 -102.7319
# 80 vertices

vn -0.9354 0.0790 -0.3445
vn -0.7726 0.1103 -0.6252
vn -0.7186 0.3471 -0.6026
vn -0.9070 0.4180 -0.0509
vn -0.5410 0.0315 -0.8405
vn -0.2169 0.3393 -0.9153
vn -0.6126 0.7871 0.0722
vn -0.5768 0.6427 -0.5042
vn 0.0105 0.7206 -0.6933
vn -0.1943 0.9486 -0.2497
vn -0.1289 0.9724 0.1947
vn 0.2795 0.9268 -0.2509
vn 0.5750 0.5235 0.6287
vn -0.0971 0.4526 0.8864
vn -0.2043 0.2923 0.9343
vn 0.2588 0.9403 0.2210
vn -0.5190 0.1136 0.8472
vn -0.5158 -0.2578 0.8170
vn -0.2271 0.9644 0.1353
vn -0.4788 0.2117 0.8520
vn -0.3245 -0.2590 0.9098
vn -0.4815 0.2323 0.8451
vn -0.9179 -0.2045 0.3399
vn -0.4672 -0.1564 0.8702
vn -0.6874 0.7247 0.0486
vn -0.6183 0.6687 -0.4130
vn -0.4500 0.8742 -0.1822
vn -0.3455 0.8453 0.4074
vn -0.5865 0.5673 -0.5781
vn -0.2821 0.6496 -0.7060
vn 0.2734 0.8679 0.4147
vn -0.0609 0.9929 0.1023
vn 0.1316 0.8106 -0.5706
vn 0.4434 0.8926 -0.0813
vn 0.6445 0.7203 0.2566
vn 0.7038 0.5479 -0.4522
vn 0.0719 0.3073 0.9489
vn -0.2459 0.3978 0.8839
vn -0.1403 0.7083 0.6918
vn 0.5649 0.5406 0.6234
vn -0.5506 0.3837 0.7413
vn -0.6869 0.6988 0.1999
vn 0.7369 0.6751 0.0350
vn 0.0389 0.9432 0.3298
vn -0.4364 0.8184 -0.3740
vn 0.2708 0.8029 -0.5310
vn 0.6637 0.4794 -0.5742
vn -0.0601 0.5351 -0.8426
vn 0.5276 0.3473 -0.7752
vn 0.8742 0.4115 -0.2579
vn 0.3952 0.8144 -0.4249
vn 0.3103 0.6107 -0.7286
vn -0.0880 0.9675 -0.2370
vn 0.0189 0.7362 -0.6765
vn 0.7655 0.4975 0.4082
vn 0.5573 0.8303 -0.0040
vn -0.0700 0.9511 0.3008
vn 0.2380 0.7679 0.5947
vn 0.2732 0.3782 0.8845
vn -0.1673 0.7099 0.6842
vn 0.5624 0.5340 -0.6313
vn 0.7138 0.6057 -0.3516
vn 0.5602 0.7803 -0.2780
vn 0.1514 0.7050 -0.6929
vn 0.8432 0.5340 -0.0613
vn 0.6380 0.7077 0.3035
vn -0.2315 0.8685 -0.4384
vn 0.2866 0.9454 -0.1554
vn 0.1937 0.8693 0.4548
vn -0.2006 0.9743 0.1025
vn -0.5893 0.8064 -0.0493
vn -0.3544 0.7844 0.5090
vn 0.5867 0.5340 0.6088
vn 0.2963 0.6057 0.7385
vn 0.2345 0.7803 0.5797
vn 0.6794 0.7050 0.2037
vn -0.0031 0.5340 0.8455
vn -0.3512 0.7077 0.6131
vn 0.4547 0.8685 -0.1974
vn 0.1331 0.9454 0.2976
vn -0.4683 0.8693 0.1585
vn -0.0869 0.9743 -0.2079
vn 0.0940 0.8064 -0.5839
vn -0.4806 0.7844 -0.3921
# 84 vertex normals

vt 0.3401 0.0000 0.0000
vt 0.4854 0.0000 0.0000
vt 0.4994 0.2537 0.0000
vt -0.0000 0.2514 0.0000
vt 0.6393 -0.0000 0.0000
vt 1.0000 0.2513 0.0000
vt 0.0470 0.7908 0.0000
vt 0.5000 0.5094 0.0000
vt 0.9544 0.8083 0.0000
vt 0.5000 1.0104 0.0000
vt 0.2281 1.0048 0.0000
vt 0.7719 1.0048 0.0000
# 12 texture coords

g tiny_weed_03
s 1
f 1/1/1 2/2/2 3/3/3 4/4/4 
f 3/3/3 2/2/2 5/5/5 6/6/6 
f 7/7/7 4/4/4 3/3/3 8/8/8 
f 3/3/3 6/6/6 9/9/9 8/8/8 
f 10/10/10 11/11/11 7/7/7 8/8/8 
f 9/9/9 12/12/12 10/10/10 8/8/8 
f 13/1/13 14/2/14 15/3/15 16/4/16 
f 15/3/15 14/2/14 17/5/17 18/6/18 
f 19/7/19 16/4/16 15/3/15 20/8/20 
f 15/3/15 18/6/18 21/9/21 20/8/20 
f 22/10/22 23/11/23 19/7/19 20/8/20 
f 21/9/21 24/12/24 22/10/22 20/8/20 
f 25/1/25 14/2/26 26/3/27 27/4/28 
f 26/3/27 14/2/26 28/5/29 29/6/30 
f 30/7/31 27/4/28 26/3/27 31/8/32 
f 26/3/27 29/6/30 32/9/33 31/8/32 
f 33/10/34 34/11/35 30/7/31 31/8/32 
f 32/9/33 35/12/36 33/10/34 31/8/32 
f 36/1/37 14/2/38 37/3/39 38/4/40 
f 37/3/39 14/2/38 39/5/41 40/6/42 
f 41/7/43 38/4/40 37/3/39 42/8/44 
f 37/3/39 40/6/42 43/9/45 42/8/44 
f 44/10/46 45/11/47 41/7/43 42/8/44 
f 43/9/45 46/12/48 44/10/46 42/8/44 
f 47/1/49 48/4/50 49/3/51 14/2/52 
f 49/3/51 50/6/53 51/5/54 14/2/52 
f 52/7/55 53/8/56 49/3/51 48/4/50 
f 49/3/51 53/8/56 54/9/57 50/6/53 
f 55/10/58 53/8/56 52/7/55 56/11/59 
f 54/9/57 53/8/56 55/10/58 57/12/60 
f 58/1/61 14/2/62 59/3/63 60/4/64 
f 59/3/63 14/2/62 61/5/65 62/6/66 
f 63/7/67 60/4/64 59/3/63 64/8/68 
f 59/3/63 62/6/66 65/9/69 64/8/68 
f 66/10/70 67/11/71 63/7/67 64/8/68 
f 65/9/69 68/12/72 66/10/70 64/8/68 
f 69/1/73 70/2/74 71/3/75 72/4/76 
f 71/3/75 70/2/74 73/5/77 74/6/78 
f 75/7/79 72/4/76 71/3/75 76/8/80 
f 71/3/75 74/6/78 77/9/81 76/8/80 
f 78/10/82 79/11/83 75/7/79 76/8/80 
f 77/9/81 80/12/84 78/10/82 76/8/80 
# 42 polygons

